<?xml version="1.0" standalone="no"?>
<!DOCTYPE svg PUBLIC "-//W3C//DTD SVG 20010904//EN"
 "http://www.w3.org/TR/2001/REC-SVG-20010904/DTD/svg10.dtd">
<svg version="1.0" xmlns="http://www.w3.org/2000/svg"
 width="2714.000000pt" height="2714.000000pt" viewBox="0 0 2714.000000 2714.000000"
 preserveAspectRatio="xMidYMid meet">

<g transform="translate(0.000000,2714.000000) scale(0.100000,-0.100000)"
fill="#0369A1" stroke="none">
<path d="M12995 27039 c-2971 -127 -5766 -1205 -8040 -3099 -1995 -1662 -3475
-3857 -4239 -6288 -440 -1397 -644 -2806 -622 -4282 3 -234 9 -444 12 -467 l7
-43 2241 0 2242 0 -10 103 c-12 133 -12 1081 0 1215 l10 102 -1530 0 -1529 0
7 113 c10 180 34 424 67 686 272 2192 1152 4270 2545 6011 304 380 500 597
899 995 398 399 615 595 995 899 1289 1031 2761 1782 4345 2216 771 211 1495
332 2390 401 223 17 1087 23 1356 10 411 -21 767 -55 1159 -111 2113 -303
4109 -1171 5790 -2516 176 -141 445 -368 467 -395 10 -13 -85 -112 -560 -586
l-572 -572 -177 148 c-1652 1381 -3639 2198 -5790 2381 -1554 132 -3134 -86
-4577 -631 -1265 -478 -2429 -1204 -3426 -2136 -185 -173 -484 -477 -633 -643
l-112 -125 6851 -6851 6850 -6850 -133 -110 c-1408 -1157 -3129 -1858 -4938
-2014 -481 -41 -1059 -41 -1540 0 -1936 167 -3752 951 -5221 2257 -238 211
-598 577 -809 820 l-46 53 -1588 -1589 -1589 -1589 114 -123 c1366 -1477 3033
-2631 4869 -3369 2442 -982 5147 -1226 7747 -700 2848 577 5418 2062 7378
4264 2245 2522 3442 5749 3391 9146 -3 234 -9 444 -12 468 l-7 42 -2239 0
-2240 0 9 -167 c10 -217 10 -869 0 -1085 l-9 -168 1528 0 1527 0 -7 -112 c-10
-181 -34 -425 -67 -687 -283 -2276 -1224 -4434 -2707 -6209 -429 -514 -1020
-1105 -1534 -1534 -1330 -1112 -2878 -1922 -4543 -2378 -771 -211 -1495 -332
-2390 -401 -223 -17 -1087 -23 -1356 -10 -2423 121 -4683 931 -6619 2372 -257
191 -749 593 -797 650 -10 13 85 112 560 587 l572 572 95 -81 c836 -717 1828
-1319 2859 -1736 1034 -417 2100 -655 3291 -735 400 -26 1108 -14 1570 28
2038 183 3981 969 5570 2252 413 334 861 757 1204 1137 l127 139 -6851 6851
-6851 6851 147 119 c1368 1117 2989 1797 4724 1984 370 40 498 46 965 46 481
0 627 -7 1010 -50 1854 -208 3575 -978 4986 -2232 238 -211 598 -577 809 -820
l46 -53 1588 1589 1589 1589 -114 123 c-942 1019 -2037 1892 -3229 2574 -2042
1169 -4349 1774 -6725 1763 -187 0 -425 -5 -530 -9z"/>
</g>
</svg>
